<?xml version="1.0" encoding="UTF-8" standalone="no"?>
<svg width="40px" height="40px" viewBox="0 0 40 40" version="1.1" xmlns="http://www.w3.org/2000/svg" xmlns:xlink="http://www.w3.org/1999/xlink">
    <!-- Generator: sketchtool 49.3 (51167) - http://www.bohemiancoding.com/sketch -->
    <title>732A9487-B49D-4D87-B004-06DA47988357</title>
    <desc>Created with sketchtool.</desc>
    <defs></defs>
    <g id="Symbol" stroke="none" stroke-width="1" fill="none" fill-rule="evenodd">
        <g id="Sign/Add">
            <g transform="translate(3.000000, 3.000000)">
                <path d="M16,16 L16,10 C16,9.44771525 16.4477153,9 17,9 C17.5522847,9 18,9.44771525 18,10 L18,16 L24,16 C24.5522847,16 25,16.4477153 25,17 C25,17.5522847 24.5522847,18 24,18 L18,18 L18,24 C18,24.5522847 17.5522847,25 17,25 C16.4477153,25 16,24.5522847 16,24 L16,18 L10,18 C9.44771525,18 9,17.5522847 9,17 C9,16.4477153 9.44771525,16 10,16 L16,16 Z" id="Plus" fill="#FFFFFF"></path>
                <circle id="Oval" stroke="#FFFFFF" stroke-width="2" cx="17" cy="17" r="17"></circle>
            </g>
        </g>
    </g>
</svg>