<?xml version="1.0" encoding="UTF-8" standalone="no"?>
<svg width="72px" height="24px" viewBox="0 0 72 24" version="1.1" xmlns="http://www.w3.org/2000/svg" xmlns:xlink="http://www.w3.org/1999/xlink">
    <!-- Generator: sketchtool 49.3 (51167) - http://www.bohemiancoding.com/sketch -->
    <title>6D324B69-F843-4DB1-8825-533A16523B5B</title>
    <desc>Created with sketchtool.</desc>
    <defs></defs>
    <g id="Symbol" stroke="none" stroke-width="1" fill="none" fill-rule="evenodd">
        <g id="Icon/Payment-logos/Color">
            <g id="Mastercard-Logo" transform="translate(42.000000, 3.000000)">
                <circle id="Red" fill="#FD250A" cx="9" cy="9" r="9"></circle>
                <circle id="Orange" fill="#FFA914" cx="21" cy="9" r="9"></circle>
                <path d="M15,2.29168048 C16.8412481,3.93964214 18,6.33450056 18,9 C18,11.6654994 16.8412481,14.0603579 15,15.7083195 C13.1587519,14.0603579 12,11.6654994 12,9 C12,6.33450056 13.1587519,3.93964214 15,2.29168048 Z" id="Combined" fill="#FF5510"></path>
            </g>
            <g id="Visa-Logo" transform="translate(0.000000, 6.000000)" fill-rule="nonzero">
                <polygon id="polygon9" fill="#00579F" points="14.7641677 11 12.0242915 11 13.7380064 0.44 16.4777328 0.44"></polygon>
                <path d="M24.9392713,0.453339721 C24.3828915,0.237886668 23.5004272,0 22.4092626,0 C19.6236617,0 17.6620644,1.44990419 17.6500329,3.52283055 C17.6268954,5.05223104 19.0544792,5.90169724 20.1221977,6.41164796 C21.2135166,6.93274021 21.5844878,7.27285792 21.5844878,7.73733917 C21.5733818,8.45069806 20.7026405,8.77952368 19.8905142,8.77952368 C18.7643349,8.77952368 18.1609089,8.60999179 17.2438926,8.21311251 L16.8724586,8.04297837 L16.4777328,10.4332877 C17.1393111,10.7274843 18.3581946,10.9885574 19.6236617,11 C22.5834109,11 24.510302,9.57252943 24.533131,7.36349576 C24.5443912,6.15132768 23.7905714,5.22251574 22.1653934,4.46353682 C21.1788103,3.97632083 20.574613,3.64779633 20.574613,3.14928826 C20.5861818,2.6960991 21.0856433,2.23191897 22.1993284,2.23191897 C23.1163447,2.20918423 23.7901087,2.42433616 24.300522,2.63963865 L24.5556515,2.7527101 L24.9392713,0.453339721 Z" id="path11" fill="#00579F"></path>
                <path d="M28.2730099,7.25906367 C28.4978708,6.6523971 29.363122,4.30441978 29.363122,4.30441978 C29.3517745,4.32696633 29.5875349,3.68655459 29.7223618,3.29340837 L29.91318,4.20333357 C29.91318,4.20333357 30.4302404,6.73108607 30.5425215,7.25906367 C30.1157936,7.25906367 28.8123176,7.25906367 28.2730099,7.25906367 Z M31.6433839,0.44 L29.5313944,0.44 C28.8801043,0.44 28.385291,0.630824484 28.1042897,1.31618003 L24.048583,11 L26.9135427,11 C26.9135427,11 27.3852129,9.69662995 27.4865943,9.41591788 C27.8008918,9.41591788 30.5879117,9.41591788 30.9922431,9.41591788 C31.0706308,9.78666686 31.3180375,11 31.3180375,11 L33.8461538,11 L31.6433839,0.44 Z" id="path13" fill="#00579F"></path>
                <path d="M9.97704552,0.44 L7.25607203,7.64855384 L6.95873856,6.18657476 C6.4556874,4.49964133 4.878012,2.66682388 3.11740891,1.75549718 L5.60972278,11 L8.54780895,11 L12.9149798,0.44 L9.97704552,0.44 Z" id="path15" fill="#00579F"></path>
                <path d="M4.47235006,0.44 L0.0452907637,0.44 L0,0.652590184 C3.45338311,1.5257125 5.74049145,3.63034045 6.68016194,6.16 L5.71777083,1.32442872 C5.55932839,0.652441416 5.07241507,0.462166506 4.47235006,0.44 Z" id="path17" fill="#FAA61A"></path>
            </g>
        </g>
    </g>
</svg>