<?xml version="1.0" encoding="UTF-8" standalone="no"?>
<svg width="40px" height="40px" viewBox="0 0 40 40" version="1.1" xmlns="http://www.w3.org/2000/svg" xmlns:xlink="http://www.w3.org/1999/xlink">
    <!-- Generator: sketchtool 49.3 (51167) - http://www.bohemiancoding.com/sketch -->
    <title>1F6D4F45-78E9-4316-B68F-6B7003127989</title>
    <desc>Created with sketchtool.</desc>
    <defs></defs>
    <g id="Symbol" stroke="none" stroke-width="1" fill="none" fill-rule="evenodd">
        <g id="Icon/Drink" stroke="#151515" stroke-width="2">
            <path d="M11.2099751,8 C11.1767454,8 11.1435363,8.00165632 11.1104714,8.00496281 C10.5609275,8.0599172 10.1599835,8.54995985 10.2149379,9.09950372 L12.8149379,35.0995037 C12.8660581,35.6107055 13.2962237,36 13.8099751,36 L26.1900249,36 C26.7037763,36 27.1339419,35.6107055 27.1850621,35.0995037 L29.7850621,9.09950372 C29.7883686,9.06643887 29.7900249,9.03322976 29.7900249,9 C29.7900249,8.44771525 29.3423096,8 28.7900249,8 L11.2099751,8 Z" id="Rectangle"></path>
            <polyline id="Path" stroke-linecap="round" stroke-linejoin="round" points="24 16 27.5 5.04347826 31 4"></polyline>
            <path d="M11,14 C17.181459,15.3333333 21.6199752,16 24.3155486,16 C27.011122,16 28.7392724,15.3333333 29.5,14" id="Path" stroke-linejoin="round"></path>
        </g>
    </g>
</svg>