<?xml version="1.0" encoding="UTF-8" standalone="no"?>
<svg width="24px" height="24px" viewBox="0 0 24 24" version="1.1" xmlns="http://www.w3.org/2000/svg" xmlns:xlink="http://www.w3.org/1999/xlink">
    <!-- Generator: sketchtool 49.3 (51167) - http://www.bohemiancoding.com/sketch -->
    <title>465F193B-0DE3-47FD-87E0-FB17C0CD0C19</title>
    <desc>Created with sketchtool.</desc>
    <defs></defs>
    <g id="Symbol" stroke="none" stroke-width="1" fill="none" fill-rule="evenodd">
        <g id="Footer/1920" transform="translate(-1469.000000, -24.000000)" fill="#151515">
            <g id="Icon/Facebook">
                <g transform="translate(1469.000000, 24.000000)">
                    <g>
                        <path d="M0,6 L-8.8817842e-15,18 C-8.47597195e-15,21.3137085 2.6862915,24 6,24 L12,24 L12,16 L10,16 L10,12 L12,12 L12,8 C12,5.5 14,4 16.4952914,4 L19.0031711,4 L19.0031711,8 L17,8 C16.5,8 16,8.49882719 16,9 L16,12 L19.5,12 L18.5,16 L16,16 L16,24 L18,24 C21.3137085,24 24,21.3137085 24,18 L24,6 C24,2.6862915 21.3137085,-6.08718376e-16 18,0 L6,0 C2.6862915,6.08718376e-16 -4.05812251e-16,2.6862915 0,6 Z" fill-rule="nonzero"></path>
                    </g>
                </g>
            </g>
        </g>
    </g>
</svg>