<?xml version="1.0" encoding="UTF-8" standalone="no"?>
<svg width="40px" height="40px" viewBox="0 0 40 40" version="1.1" xmlns="http://www.w3.org/2000/svg" xmlns:xlink="http://www.w3.org/1999/xlink">
    <!-- Generator: Sketch 49.3 (51167) - http://www.bohemiancoding.com/sketch -->
    <title>Icon/Garnish</title>
    <desc>Created with Sketch.</desc>
    <defs></defs>
    <g id="Icon/Garnish" stroke="none" stroke-width="1" fill="none" fill-rule="evenodd">
        <g id="Group-11" transform="translate(3.000000, 3.000000)">
            <path d="" id="Path-19" stroke="#979797"></path>
            <path d="M10.6006706,0.956691864 C9.71787888,0.353050214 8.65016909,0 7.5,0 C4.46243388,0 2,2.46243388 2,5.5" id="Oval-5" stroke="#151515" stroke-width="2"></path>
            <path d="M20.797109,5.32004076 C20.0446657,2.26541833 17.2868912,0 14,0 C10.4220578,0 7.47108677,2.68438236 7.05120252,6.14903137" id="Oval-5" stroke="#151515" stroke-width="2" stroke-linecap="round" stroke-linejoin="round"></path>
            <path d="M17.4220773,4.92778255 C16.7207707,3.77211817 15.4505543,3 14,3 C12.108744,3 10.5240508,4.31255179 10.1071532,6.07642275" id="Oval-5-Copy-2" stroke="#151515" stroke-width="2" stroke-linecap="round"></path>
            <path d="M12.8505904,7.39840563 C11.8085671,6.52551795 10.4656542,6 9,6 C7.19936722,6 5.58399288,6.79318563 4.48421792,8.04921593" id="Oval-5" stroke="#151515" stroke-width="2" stroke-linecap="round" stroke-linejoin="round"></path>
            <path d="M11.7928487,10.902359 C11.3547165,9.78845196 10.2694347,9 9,9 C7.49727783,9 6.25261232,10.1048719 6.03404204,11.546577" id="Oval-5-Copy-2" stroke="#151515" stroke-width="2" stroke-linecap="round" stroke-linejoin="round"></path>
            <path d="M10.2456842,13.9064813 C6.4648419,13.6031009 4.37766322,10.9676071 3.98414819,6 L1,6 C0.44771525,6 -6.76353751e-17,6.44771525 0,7 C4.79039394e-18,7.03911654 0.00229515327,7.07819937 0.00687362778,7.11704704 L2.96709703,32.2340941 C3.08578438,33.2411383 3.93933559,34 4.95334977,34 C7.76048249,34 9.59643364,34 11,34" id="Path-13" stroke="#151515" stroke-width="2" stroke-linecap="round" stroke-linejoin="round"></path>
            <path d="M25.3389616,16.5006458 C26.8238085,16.9923936 29.1615568,16.6598883 32.3522065,15.50313 C29.6423688,12.9300309 27.7498265,11.1745662 26.6745795,10.2367358" id="Path-8" stroke="#151515" stroke-width="2" stroke-linejoin="round" transform="translate(28.845584, 13.478707) rotate(-88.000000) translate(-28.845584, -13.478707) "></path>
            <path d="M29.0102165,11.0171771 L24.9156702,8.38332677 C24.2064949,8.71176309 23.536172,9.07278481 23.1084452,9.72944056 C22.6807184,10.3860963 22.3669432,11.0759997 22.1671197,11.7991506 L25.8711665,13.7499667" id="Path-14" stroke="#151515" stroke-width="2" stroke-linecap="round" stroke-linejoin="round" transform="translate(25.588668, 11.066647) rotate(-285.000000) translate(-25.588668, -11.066647) "></path>
            <path d="M30.1043992,20.1899 C24.2499303,13.0311857 20.2378001,9.55704536 18.0680084,9.76747884 C14.5980205,10.1040096 15.371024,11.8381928 15.7943464,14.2389737" id="Path-8" stroke="#151515" stroke-width="2" stroke-linejoin="round" transform="translate(22.758164, 14.974183) rotate(10.000000) translate(-22.758164, -14.974183) "></path>
            <path d="M20.5545524,11.659855 C19.6920521,12.7476286 19.3453329,13.7709144 19.5143949,14.7297125 C19.7679879,16.1679096 24.4560274,20.4727981 25.8501781,21.5443561 C27.3640144,22.7079056 27.0038365,22.5319533 28.1952713,23.0560329" id="Path-9" stroke="#151515" stroke-width="2" transform="translate(23.834053, 17.357944) rotate(10.000000) translate(-23.834053, -17.357944) "></path>
            <path d="M25.0553903,21.5910513 L16.3487562,14.7322899 C14.7589536,15.4975903 13.6960383,16.2917016 13.1600102,17.1146239 C12.623982,17.9375462 13.383614,18.4668746 14.0393333,19.87806" id="Path-14" stroke="#151515" stroke-width="2" stroke-linecap="round" stroke-linejoin="round" transform="translate(19.016990, 18.161671) rotate(33.000000) translate(-19.016990, -18.161671) "></path>
            <path d="M18.9391706,17.1270356 C17.3344861,17.9828274 16.572066,18.9089354 16.6519103,19.9053594 C16.6705651,20.1381637 16.6939792,20.3736344 16.7221526,20.6117716" id="Path-15" stroke="#151515" stroke-width="2" transform="translate(17.792702, 18.869404) rotate(33.000000) translate(-17.792702, -18.869404) "></path>
            <path d="M12.0273532,18.176426 L14.5683008,32.352852 C14.7391619,33.3061184 15.5684709,34 16.5369286,34 L29.3744478,34 C30.3442707,34 31.1743357,33.3042086 31.3437107,32.3492906 L33.8578849,18.1746453 C33.9543389,17.6308484 33.5916957,17.1118225 33.0478988,17.0153686 C32.9902459,17.0051426 32.9318063,17 32.8732535,17 L30.0998119,17 C29.6351659,22.3333333 27.2361762,25 22.9028429,25 C18.5695096,25 16.1436587,22.3333333 15.6252904,17 L13.0116671,17 C12.4593823,17 12.0116671,17.4477153 12.0116671,18 C12.0116671,18.0591569 12.0169163,18.1181971 12.0273532,18.176426 Z" id="Path-13-Copy-2" stroke="#151515" stroke-width="2" stroke-linecap="round" stroke-linejoin="round"></path>
        </g>
    </g>
</svg>