<?xml version="1.0" encoding="UTF-8" standalone="no"?>
<svg width="24px" height="24px" viewBox="0 0 24 24" version="1.1" xmlns="http://www.w3.org/2000/svg" xmlns:xlink="http://www.w3.org/1999/xlink">
    <!-- Generator: sketchtool 49.3 (51167) - http://www.bohemiancoding.com/sketch -->
    <title>93C8C4CF-E374-4FC2-AD58-165DA7B74122</title>
    <desc>Created with sketchtool.</desc>
    <defs></defs>
    <g id="Symbol" stroke="none" stroke-width="1" fill="none" fill-rule="evenodd">
        <g id="Icon/LoginWindow/Mail" fill="#151515">
            <g transform="translate(5.000000, 6.000000)" id="Icon/Mail">
                <path d="M0,4 L6.1416626,7.77372207 C6.61570926,8.0649983 7.3763504,8.06987721 7.8583374,7.77372207 L14,4 L14,10.0018986 C14,11.1054196 13.1029399,12 11.9941413,12 L2.00585866,12 C0.898053512,12 0,11.1132936 0,10.0018986 L0,4 Z M0,2 C0,0.8954305 0.897060126,0 2.00585866,0 L11.9941413,0 C13.1019465,0 14,0.894705057 14,2 L7.8583374,5.76961576 C7.38429074,6.06057505 6.6236496,6.06544865 6.1416626,5.76961576 L0,2 Z"></path>
            </g>
        </g>
    </g>
</svg>