<?xml version="1.0" encoding="UTF-8" standalone="no"?>
<svg width="24px" height="24px" viewBox="0 0 24 24" version="1.1" xmlns="http://www.w3.org/2000/svg" xmlns:xlink="http://www.w3.org/1999/xlink">
    <!-- Generator: sketchtool 49.3 (51167) - http://www.bohemiancoding.com/sketch -->
    <title>81CE655E-20CA-4690-A5D1-83E0F088F437</title>
    <desc>Created with sketchtool.</desc>
    <defs></defs>
    <g id="Symbol" stroke="none" stroke-width="1" fill="none" fill-rule="evenodd">
        <g id="Icon/Phone" fill="#000000" fill-rule="nonzero">
            <g transform="translate(4.000000, 4.000000)" id="Shape">
                <path d="M15.8358838,13.441431 C14.9295727,15.614231 12.8045949,15.995031 12.1101949,15.995031 C11.9062838,15.995031 8.73063933,16.1633866 4.16566155,11.8332532 C0.491883774,8.34845324 0.0429948848,4.60107546 0.00388377367,3.88907546 C-0.0341606708,3.19556435 0.164417107,1.45583102 2.55766155,0.163208793 C2.85419488,0.00303101518 3.442106,-0.0679023182 3.59392822,0.0839199041 C3.661306,0.151297682 5.67001711,3.4567199 5.72281711,3.56623102 C5.77561711,3.67556435 5.802106,3.78329768 5.802106,3.88889768 C5.802106,4.03983102 5.69455044,4.22863102 5.47926155,4.4551199 C5.26415044,4.68160879 5.03019488,4.88925324 4.77721711,5.07787546 C4.52423933,5.26667546 4.29028377,5.46667546 4.07499488,5.67805324 C3.85988377,5.88925324 3.75232822,6.0631199 3.75232822,6.19894213 C3.766906,6.55147546 4.05579488,7.81423102 6.256506,9.7479199 C8.45757266,11.6821421 9.51783933,12.227031 9.619706,12.2647199 C9.72175044,12.3024088 9.80655044,12.3210755 9.87446155,12.3210755 C10.0104616,12.3210755 10.1841504,12.2136977 10.3955282,11.9985866 C10.6067282,11.7832977 11.317306,10.809431 11.5437949,10.5941421 C11.7702838,10.3792088 11.9590838,10.2716532 12.1101949,10.2716532 C12.2157949,10.2716532 12.3233504,10.2979643 12.4326838,10.3507643 C12.5421949,10.4035643 15.8518838,12.3402755 15.9151727,12.4049866 C16.086906,12.5809866 15.9656616,13.1303199 15.8358838,13.441431"></path>
            </g>
        </g>
    </g>
</svg>