<?xml version="1.0" encoding="UTF-8" standalone="no"?>
<svg width="40px" height="40px" viewBox="0 0 40 40" version="1.1" xmlns="http://www.w3.org/2000/svg" xmlns:xlink="http://www.w3.org/1999/xlink">
    <!-- Generator: sketchtool 49.3 (51167) - http://www.bohemiancoding.com/sketch -->
    <title>DBAED690-6EF3-4E73-8756-0CC77C6B2E42</title>
    <desc>Created with sketchtool.</desc>
    <defs></defs>
    <g id="Symbol" stroke="none" stroke-width="1" fill="none" fill-rule="evenodd">
        <g id="Icon/Salad">
            <path d="M7.01053143,14.5282061 C7.00617344,13.7068822 7.01516625,11.4973876 7,11 C7.42291819,9.89105774 9.50353469,12.4570704 11.0186662,11.2860372 C11.7529803,10.3107184 9.25228871,9.21519757 10.1300001,8.24269702 C11.2595139,6.44666112 13.4881116,5.26303319 14.8109819,5.05999994 C15.8321685,4.94697706 15.4441716,7.19267063 18.0381036,7.19267063 C20.6320356,7.19267063 21.7050033,4.1082941 21.8709397,5.25588948 C22.0368761,6.40348486 21.4405786,10.7244175 21.5572335,11.2860372" id="Path" stroke="#151515" stroke-width="2"></path>
            <path d="M19.2567676,16.3751539 C17.4462285,13.0191723 16.7250966,11.0149914 17.0933719,10.3626114 C17.7297918,9.23522738 19.2342892,11.9038792 21.6803522,11.1739385 C24.1264152,10.4439978 24.2824167,8.38410803 25.0172039,8.16475442 C25.751991,7.94540081 28.0957457,7.69819438 30.7452576,9.20356754 C32.1601713,10.359739 28.3423279,12.290929 29.6779211,12.7350071 C31.0135142,13.1790852 35.2354587,11.7857102 35.8835846,13.3288341 C36.3156686,14.3575834 35.2954628,15.9146387 32.8229672,18" id="Path" stroke="#151515" stroke-width="2"></path>
            <path d="M24,18 C24,17.7821807 24,17.6155141 24,17.5 C24,16.1192881 22.8807119,15 21.5,15 C20.1192881,15 19,16.1192881 19,17.5 C19,17.6161159 19,17.7827826 19,18 L24,18 Z" id="Oval" stroke="#151515" stroke-width="2"></path>
            <path d="M25.3126264,35 C32.2104764,33.3156707 37,26.5 37,20 C37,19.6666667 37,19.3333333 37,19 L37,19 C37,18.4477153 36.5522847,18 36,18 L4.00036756,18 C3.44808281,18 3.00036756,18.4477153 3.00036756,19 C3.00036756,19.3333333 3.00036756,19.6666667 3.00036756,20 C2.95045757,26.0988768 7.9889569,33.4271417 14.6877412,35 C17.8754402,35 21.0952733,35 25.3126264,35 Z" id="Oval" stroke="#151515" stroke-width="2" stroke-linecap="round" stroke-linejoin="round"></path>
            <rect id="Rectangle" fill="#151515" x="4" y="21" width="32" height="2"></rect>
            <path d="M13.2000003,18 C13.2000003,15.790861 11.3091389,14 9.0999999,14 C6.89086091,14 5,15.790861 5,18 C8,17.9974978 11.2000003,18.0008139 13.2000003,18 Z" id="Oval" stroke="#151515" stroke-width="2"></path>
        </g>
    </g>
</svg>