<?xml version="1.0" encoding="UTF-8" standalone="no"?>
<svg width="40px" height="40px" viewBox="0 0 40 40" version="1.1" xmlns="http://www.w3.org/2000/svg" xmlns:xlink="http://www.w3.org/1999/xlink">
    <!-- Generator: sketchtool 49.3 (51167) - http://www.bohemiancoding.com/sketch -->
    <title>630E85ED-0963-41D9-AADE-FAC7984BB6F1</title>
    <desc>Created with sketchtool.</desc>
    <defs></defs>
    <g id="Symbol" stroke="none" stroke-width="1" fill="none" fill-rule="evenodd">
        <g id="Icon/Sauce" stroke="#151515" stroke-width="2">
            <g id="Sauce-2" transform="translate(11.500000, 20.000000) scale(1, -1) translate(-11.500000, -20.000000) translate(3.000000, 4.000000)">
                <path d="M1.40239364,12.0759808 C2.49878088,14.3975961 3.00084195,15.632859 3.02146229,16.2039143 C3.04240895,16.7840069 2.61441014,17.9990211 1.64819196,20.2823224 L2.63451667,26.1653483 C2.71528521,26.6470998 3.13227667,27 3.62075191,27 L13.3792868,27 C13.8677621,27 14.2847535,26.6470998 14.3655221,26.1653483 L15.3558911,20.2582 C14.5225195,18.0102778 14.1457879,16.7776007 14.1665032,16.2039143 C14.1869245,15.6383724 14.6374059,14.385113 15.5967099,12.0987727 L16.009412,2.04099865 C16.0101127,2.02050507 16.0101127,2.02050507 16.0102528,2 C16.0102528,1.44771525 15.5625376,1 15.0102528,1 L1.98978593,1 C1.96928085,1.00014016 1.96928085,1.00014016 1.94878728,1.0008408 C1.39696689,1.02348373 0.967983795,1.48917826 0.990626724,2.04099865 L1.40239364,12.0759808 Z" id="Rectangle"></path>
                <circle id="Oval" cx="8.5" cy="16.5" r="2.5"></circle>
                <path d="M4.99773601,27 C4.94830743,27 4.89894688,27.0036648 4.85006025,27.0109642 C4.30383085,27.0925232 3.92714111,27.6014463 4.00870018,28.1476758 L4.30732587,30.1476758 C4.38046248,30.6374971 4.80111034,31 5.29636169,31 L11.7039179,31 C12.1991692,31 12.6198171,30.6374971 12.6929537,30.1476758 L12.9915794,28.1476758 C12.9988788,28.0987891 13.0025436,28.0494286 13.0025436,28 C13.0025436,27.4477153 12.5548283,27 12.0025436,27 L4.99773601,27 Z" id="Rectangle"></path>
            </g>
            <g id="Sauce-1" transform="translate(20.000000, 4.000000)">
                <path d="M1.40239364,12.0759808 C2.49878088,14.3975961 3.00084195,15.632859 3.02146229,16.2039143 C3.04240895,16.7840069 2.61441014,17.9990211 1.64819196,20.2823224 L2.63451667,26.1653483 C2.71528521,26.6470998 3.13227667,27 3.62075191,27 L13.3792868,27 C13.8677621,27 14.2847535,26.6470998 14.3655221,26.1653483 L15.3558911,20.2582 C14.5225195,18.0102778 14.1457879,16.7776007 14.1665032,16.2039143 C14.1869245,15.6383724 14.6374059,14.385113 15.5967099,12.0987727 L16.009412,2.04099865 C16.0101127,2.02050507 16.0101127,2.02050507 16.0102528,2 C16.0102528,1.44771525 15.5625376,1 15.0102528,1 L1.98978593,1 C1.96928085,1.00014016 1.96928085,1.00014016 1.94878728,1.0008408 C1.39696689,1.02348373 0.967983795,1.48917826 0.990626724,2.04099865 L1.40239364,12.0759808 Z" id="Rectangle"></path>
                <circle id="Oval" cx="8.5" cy="16.5" r="2.5"></circle>
                <path d="M4.99773601,27 C4.94830743,27 4.89894688,27.0036648 4.85006025,27.0109642 C4.30383085,27.0925232 3.92714111,27.6014463 4.00870018,28.1476758 L4.30732587,30.1476758 C4.38046248,30.6374971 4.80111034,31 5.29636169,31 L11.7039179,31 C12.1991692,31 12.6198171,30.6374971 12.6929537,30.1476758 L12.9915794,28.1476758 C12.9988788,28.0987891 13.0025436,28.0494286 13.0025436,28 C13.0025436,27.4477153 12.5548283,27 12.0025436,27 L4.99773601,27 Z" id="Rectangle"></path>
            </g>
        </g>
    </g>
</svg>