<?xml version="1.0" encoding="UTF-8" standalone="no"?>
<svg width="24px" height="24px" viewBox="0 0 24 24" version="1.1" xmlns="http://www.w3.org/2000/svg" xmlns:xlink="http://www.w3.org/1999/xlink">
    <!-- Generator: sketchtool 49.3 (51167) - http://www.bohemiancoding.com/sketch -->
    <title>8250432C-CA84-49F9-A88C-21BF96E8FA82</title>
    <desc>Created with sketchtool.</desc>
    <defs></defs>
    <g id="Symbol" stroke="none" stroke-width="1" fill="none" fill-rule="evenodd">
        <g id="Sign/Shoping-Cart" fill="#FFFFFF" fill-rule="nonzero">
            <path d="M7.5,17 C6.87187097,17.0005528 6.4281456,16.4266871 6.26051007,15.8351045 C5.46729876,12.9284402 4.87239027,10.7484419 4.47578462,9.29510971 C4.07917896,7.84177753 3.48427048,5.74340763 2.69105917,3 L1,3 L1,1 L3.01882007,1.00000056 C3.6469491,0.99944771 4.19814714,1.40883315 4.36578267,2.00041573 L8,15 L22,15 L22,16.0000004 C22,16.5522851 21.5522848,17.0000004 21,17.0000004 C21,17.0000004 21,17.0000004 21,17.0000004 L7.5,17 Z M9,18 C7.8954305,18 7,18.8954305 7,20 C7,21.1045695 7.8954305,22 9,22 C10.1045695,22 11,21.1045695 11,20 C11,18.8954305 10.1045695,18 9,18 Z M21.9999798,19.9910228 C22.0036028,20.8007402 21.5186294,21.5327441 20.7715859,21.8451231 C20.0245423,22.1575021 19.1628559,21.9886089 18.5890115,21.4173318 C18.0151672,20.8460546 17.8424117,19.9851338 18.1514374,19.2366966 C18.4604632,18.4882594 19.1902846,18.0000081 20.0000096,18 C21.1010775,17.999989 21.9950534,18.8899654 21.9999798,19.9910228 Z M7.01544151,3.52523332 L9.64244701,12.6916199 C9.70424595,12.8736557 9.88448417,12.9980414 10.0892167,12.9999438 L21.7945813,12.9999438 C22.0130533,13.0032672 22.2020498,12.8587367 22.2413509,12.6582876 L23.9926879,3.49190101 C24.0167999,3.36911011 23.9806058,3.24270621 23.8940651,3.14747174 C23.8075244,3.05223727 23.6797562,2.99820736 23.5459183,3.00024936 L7.46221115,3.00024936 C7.32053885,2.99568149 7.18494882,3.0540864 7.0968245,3.15763832 C7.00870018,3.26119024 6.97850006,3.39759976 7.01544151,3.52523332 Z"></path>
        </g>
    </g>
</svg>