<?xml version="1.0" encoding="UTF-8" standalone="no"?>
<svg width="13px" height="8px" viewBox="0 0 13 8" version="1.1" xmlns="http://www.w3.org/2000/svg" xmlns:xlink="http://www.w3.org/1999/xlink">
    <!-- Generator: sketchtool 49.3 (51167) - http://www.bohemiancoding.com/sketch -->
    <title>C21DFBDD-713C-4A7D-95B9-0AFAF08D9F4B</title>
    <desc>Created with sketchtool.</desc>
    <defs></defs>
    <g id="Symbol" stroke="none" stroke-width="1" fill="none" fill-rule="evenodd">
        <g id="Sign/Check" transform="translate(-6.000000, -8.000000)" fill="#FFFFFF">
            <g id="Check">
                <g id="Sign-Check" transform="translate(7.000000, 8.000000)">
                    <path d="M6.20074597,7.87055504 C6.12257065,7.83267298 6.04805687,7.78394563 5.97935352,7.72422272 C5.91090159,7.66471836 5.85245591,7.59798304 5.8041651,7.52614216 L0.187364993,1.70977537 C-0.19797696,1.3107421 -0.186877952,0.674880344 0.212155322,0.289538391 C0.611188595,-0.0958035621 1.24705035,-0.0847045538 1.6323923,0.31432872 L6.60953163,5.46830737 L9.30003033,2.37324267 C9.6639604,1.95458901 10.2983698,1.91022678 10.7170235,2.27415685 C11.1356772,2.63808692 11.1800394,3.27249637 10.8161093,3.69115002 L7.60216407,7.3883711 C7.55108677,7.50603514 7.47647591,7.6158064 7.37845757,7.71046161 C7.05497965,8.02284061 6.57586755,8.0746945 6.20074597,7.87055504 Z" transform="translate(5.500000, 4.000000) scale(-1, 1) translate(-5.500000, -4.000000) "></path>
                </g>
            </g>
        </g>
    </g>
</svg>