<?xml version="1.0" encoding="UTF-8" standalone="no"?>
<svg width="24px" height="24px" viewBox="0 0 24 24" version="1.1" xmlns="http://www.w3.org/2000/svg" xmlns:xlink="http://www.w3.org/1999/xlink">
    <!-- Generator: sketchtool 49.3 (51167) - http://www.bohemiancoding.com/sketch -->
    <title>C249DE6F-909B-438B-94FB-025289A3F3A7</title>
    <desc>Created with sketchtool.</desc>
    <defs></defs>
    <g id="Symbol" stroke="none" stroke-width="1" fill="none" fill-rule="evenodd">
        <g id="Sign/Close/Big/White" fill="#FFFFFF">
            <path d="M10.5090442,12 L2.30878706,3.7997429 C1.89707098,3.38802681 1.89707098,2.72050315 2.30878706,2.30878706 C2.72050315,1.89707098 3.38802681,1.89707098 3.7997429,2.30878706 L12,10.5090442 L20.2002571,2.30878706 C20.6119732,1.89707098 21.2794969,1.89707098 21.6912129,2.30878706 C22.102929,2.72050315 22.102929,3.38802681 21.6912129,3.7997429 L13.4909558,12 L21.6912129,20.2002571 C22.102929,20.6119732 22.102929,21.2794969 21.6912129,21.6912129 C21.2794969,22.102929 20.6119732,22.102929 20.2002571,21.6912129 L12,13.4909558 L3.7997429,21.6912129 C3.38802681,22.102929 2.72050315,22.102929 2.30878706,21.6912129 C1.89707098,21.2794969 1.89707098,20.6119732 2.30878706,20.2002571 L10.5090442,12 Z" id="Sign/Close/Big"></path>
        </g>
    </g>
</svg>